<svg xmlns="http://www.w3.org/2000/svg" viewBox="0 0 602 512.12"><defs><style>.cls-1{fill:#07c8f8;}.cls-2{fill:#11b0e7;}.cls-3{fill:#dcdcdc;}.cls-4{fill:#f2f2f2;}</style></defs><title>web</title><g id="Background"><circle class="cls-1" cx="308" cy="256" r="256"/></g><g id="Internet"><path id="Tracé" class="cls-2" d="M794.43,181.14c-100-100-261.93-100-362,0s-100,261.93,0,362,261.92,100,362,0S894.46,281.18,794.43,181.14Zm-10.7,325a257.31,257.31,0,0,0-38.23-28.31c8.91-30.78,14.19-64.66,15.44-99.87h75.24a221.29,221.29,0,0,1-52.45,128.18ZM390.71,378H466c1.25,35.21,6.53,69.09,15.44,99.87a257.31,257.31,0,0,0-38.23,28.31A221.31,221.31,0,0,1,390.71,378Zm52.46-160.18a257.31,257.31,0,0,0,38.23,28.31C472.49,276.91,467.21,310.79,466,346H390.71A221.31,221.31,0,0,1,443.17,217.82ZM597,249.31a221.53,221.53,0,0,1-76-19.26c13.83-35.61,39.33-78.32,76-88.91Zm0,32.87V346H498.46a384.24,384.24,0,0,1,12.36-84.56A254.49,254.49,0,0,0,597,282.18ZM597,378v63.82a254.49,254.49,0,0,0-86.18,20.74A384.24,384.24,0,0,1,498.46,378Zm0,96.93V583.1c-36.7-10.58-62.2-53.29-76-88.9A221.77,221.77,0,0,1,597,474.93Zm33,0a221.77,221.77,0,0,1,76,19.27c-13.83,35.61-39.33,78.32-76,88.9Zm0-33.11V378h98.54a384.24,384.24,0,0,1-12.36,84.56A254.49,254.49,0,0,0,630,441.82ZM630,346V282.18a254.49,254.49,0,0,0,86.18-20.74A384.24,384.24,0,0,1,728.54,346Zm0-96.69V141.15c36.7,10.58,62.2,53.29,76,88.9A221.53,221.53,0,0,1,630,249.31Zm73-91.88a222.45,222.45,0,0,1,57.82,36.92,225.06,225.06,0,0,1-26.24,19.91C726.46,194.13,716.08,174.56,703,157.43ZM492.3,214.26a223.39,223.39,0,0,1-26.24-19.91,222.28,222.28,0,0,1,57.82-36.92c-13.06,17.13-23.45,36.7-31.58,56.83Zm0,295.72c8.13,20.14,18.52,39.7,31.58,56.84a222.54,222.54,0,0,1-57.82-36.92A223.47,223.47,0,0,1,492.3,510Zm242.3,0a226.18,226.18,0,0,1,26.24,19.91A222.48,222.48,0,0,1,703,566.82c13.06-17.13,23.44-36.7,31.58-56.84Zm26.34-164c-1.25-35.21-6.53-69.09-15.44-99.87a257.31,257.31,0,0,0,38.23-28.31A221.31,221.31,0,0,1,836.19,346Z" transform="translate(-305 -106)"/></g><g id="Texte"><path class="cls-3" d="M907,377.12V477.88c0,8.32-6.34,15.12-14.08,15.12H836.59c7.75,0,14.08-6.8,14.08-15.12V377.12c0-8.32-6.33-15.12-14.08-15.12h56.33C900.66,362,907,368.8,907,377.12Z" transform="translate(-305 -106)"/><path class="cls-4" d="M850.67,377.12V477.88c0,8.32-6.33,15.12-14.08,15.12H319.08c-7.74,0-14.08-6.8-14.08-15.12V377.12c0-8.32,6.34-15.12,14.08-15.12H836.59C844.34,362,850.67,368.8,850.67,377.12Z" transform="translate(-305 -106)"/><path d="M519.34,413.09q3.74,4.13,3.74,12.28v23a3.33,3.33,0,0,1-.94,2.51,3.42,3.42,0,0,1-2.46.89,3.55,3.55,0,0,1-2.55-.89,3.29,3.29,0,0,1-.94-2.51V425.54q0-5.52-2.25-8.16c-1.5-1.75-3.9-2.63-7.18-2.63a12.15,12.15,0,0,0-9.1,3.48q-3.41,3.5-3.4,9.44v20.74a3.1,3.1,0,0,1-3.4,3.4,3.55,3.55,0,0,1-2.55-.89,3.32,3.32,0,0,1-.93-2.51V394.35a3.14,3.14,0,0,1,1-2.38,3.46,3.46,0,0,1,2.51-.94,3.38,3.38,0,0,1,2.51.9,3.28,3.28,0,0,1,.89,2.42v22.27a13.85,13.85,0,0,1,5.7-5.7,17.39,17.39,0,0,1,8.33-1.95Q515.59,409,519.34,413.09Z" transform="translate(-305 -106)"/><path d="M557.75,449.09a2.43,2.43,0,0,1-1.06,2.16,4.94,4.94,0,0,1-3.19.56l-2.29-.17q-6.8-.51-10-4.08T538,436.76V415.43h-5.7a3.27,3.27,0,0,1-2.25-.72,2.46,2.46,0,0,1-.81-1.92,2.67,2.67,0,0,1,.81-2,3.14,3.14,0,0,1,2.25-.76H538v-9.61a3.3,3.3,0,0,1,.93-2.5,3.54,3.54,0,0,1,2.55-.9,3.41,3.41,0,0,1,2.47.9,3.3,3.3,0,0,1,.93,2.5V410h9.44a3,3,0,0,1,2.17.76,2.67,2.67,0,0,1,.8,2,2.45,2.45,0,0,1-.8,1.92,3.14,3.14,0,0,1-2.17.72h-9.44V437.1q0,4.68,1.92,6.76a8.16,8.16,0,0,0,5.73,2.34l2.3.17C556.76,446.54,557.75,447.45,557.75,449.09Z" transform="translate(-305 -106)"/><path d="M586.91,449.09a2.45,2.45,0,0,1-1.06,2.16,5,5,0,0,1-3.19.56l-2.3-.17q-6.79-.51-10-4.08t-3.23-10.8V415.43h-5.69a3.24,3.24,0,0,1-2.25-.72,2.46,2.46,0,0,1-.81-1.92,2.67,2.67,0,0,1,.81-2,3.11,3.11,0,0,1,2.25-.76h5.69v-9.61a3.26,3.26,0,0,1,.94-2.5,3.51,3.51,0,0,1,2.55-.9,3.39,3.39,0,0,1,2.46.9,3.26,3.26,0,0,1,.94,2.5V410h9.43a3,3,0,0,1,2.17.76,2.67,2.67,0,0,1,.81,2,2.46,2.46,0,0,1-.81,1.92,3.14,3.14,0,0,1-2.17.72H574V437.1q0,4.68,1.91,6.76a8.21,8.21,0,0,0,5.74,2.34l2.29.17C585.92,446.54,586.91,447.45,586.91,449.09Z" transform="translate(-305 -106)"/><path d="M624.14,411.69a18,18,0,0,1,6.46,7.6,26.47,26.47,0,0,1,2.29,11.35,25.91,25.91,0,0,1-2.29,11.27A17,17,0,0,1,614.53,452a16.3,16.3,0,0,1-8.45-2.13,13.67,13.67,0,0,1-5.49-6v20a3.24,3.24,0,0,1-.89,2.42,3.37,3.37,0,0,1-2.51.9,3.44,3.44,0,0,1-2.55-.94,3.22,3.22,0,0,1-.93-2.38V412.54a3.36,3.36,0,0,1,.93-2.47,3.48,3.48,0,0,1,2.55-.93,3.3,3.3,0,0,1,2.51.93,3.42,3.42,0,0,1,.89,2.47v4.59a13.7,13.7,0,0,1,5.49-6,16.39,16.39,0,0,1,8.45-2.12A17.21,17.21,0,0,1,624.14,411.69Zm-1.62,30.51q3.32-4.08,3.32-11.56T622.52,419q-3.32-4.21-9.35-4.21t-9.3,4.08q-3.29,4.08-3.28,11.64t3.28,11.69q3.27,4.13,9.3,4.12T622.52,442.2Z" transform="translate(-305 -106)"/><path d="M649.68,451a22.79,22.79,0,0,1-6.25-2.63,8.31,8.31,0,0,1-2.16-1.91,3.62,3.62,0,0,1-.64-2.17,2.64,2.64,0,0,1,.64-1.83,2.09,2.09,0,0,1,1.65-.72,6.36,6.36,0,0,1,3,1.27,28.44,28.44,0,0,0,5.06,2.43,18.91,18.91,0,0,0,6.24.89,13.29,13.29,0,0,0,7.14-1.62,5.19,5.19,0,0,0,2.55-4.67,4.66,4.66,0,0,0-.93-3,7.78,7.78,0,0,0-3.23-2,47.33,47.33,0,0,0-6.72-1.83q-7.47-1.6-10.71-4.33a9.19,9.19,0,0,1-3.23-7.4,10.71,10.71,0,0,1,2-6.46,13.77,13.77,0,0,1,5.66-4.42A20,20,0,0,1,658,409a23.19,23.19,0,0,1,6.41.89,19.2,19.2,0,0,1,5.49,2.51c1.92,1.36,2.89,2.77,2.89,4.25a2.74,2.74,0,0,1-.68,1.87,2.1,2.1,0,0,1-1.62.76,6.36,6.36,0,0,1-3.06-1.44,27.12,27.12,0,0,0-4.5-2.38,14.23,14.23,0,0,0-5.27-.85,10.57,10.57,0,0,0-6.42,1.78,5.64,5.64,0,0,0-2.42,4.76,4.74,4.74,0,0,0,.89,3,7.43,7.43,0,0,0,3,2,33.39,33.39,0,0,0,6,1.74,43,43,0,0,1,9,2.81,9.21,9.21,0,0,1,5.9,9.35,10.19,10.19,0,0,1-4.5,8.63q-4.51,3.27-11.9,3.27A28.62,28.62,0,0,1,649.68,451Z" transform="translate(-305 -106)"/><path d="M684,417.34a5,5,0,0,1,0-6.88,4.68,4.68,0,0,1,3.4-1.32,4.44,4.44,0,0,1,3.27,1.32,5.14,5.14,0,0,1,0,6.88,4.44,4.44,0,0,1-3.27,1.32A4.68,4.68,0,0,1,684,417.34Zm0,33.15a4.57,4.57,0,0,1-1.36-3.44,4.72,4.72,0,0,1,1.36-3.49,4.63,4.63,0,0,1,3.4-1.36,4.4,4.4,0,0,1,3.27,1.36,4.81,4.81,0,0,1,1.32,3.49,4.66,4.66,0,0,1-1.32,3.44,4.44,4.44,0,0,1-3.27,1.32A4.68,4.68,0,0,1,684,450.49Z" transform="translate(-305 -106)"/><path d="M705.57,456.14a2.72,2.72,0,0,1-1.7.6,3.1,3.1,0,0,1-2.13-.85,2.78,2.78,0,0,1-.94-2.13,3.52,3.52,0,0,1,.26-1.19l20.06-62.73a3.32,3.32,0,0,1,1.11-1.7,2.72,2.72,0,0,1,1.69-.59,3.05,3.05,0,0,1,2.13.85,2.85,2.85,0,0,1,.94,2.21,7.8,7.8,0,0,1-.17,1.1l-20.15,62.73A3.29,3.29,0,0,1,705.57,456.14Z" transform="translate(-305 -106)"/><path d="M726,456.14a2.68,2.68,0,0,1-1.7.6,3.09,3.09,0,0,1-2.12-.85,2.78,2.78,0,0,1-.94-2.13,3.52,3.52,0,0,1,.26-1.19l20.06-62.73a3.32,3.32,0,0,1,1.11-1.7,2.7,2.7,0,0,1,1.69-.59,3.05,3.05,0,0,1,2.13.85,2.84,2.84,0,0,1,.93,2.21,6.49,6.49,0,0,1-.17,1.1l-20.14,62.73A3.3,3.3,0,0,1,726,456.14Z" transform="translate(-305 -106)"/></g></svg>