<?xml version="1.0" encoding="utf-8"?>
<!-- Generator: Adobe Illustrator 24.3.0, SVG Export Plug-In . SVG Version: 6.00 Build 0)  -->
<svg version="1.1" id="Layer_1" xmlns="http://www.w3.org/2000/svg" xmlns:xlink="http://www.w3.org/1999/xlink" x="0px" y="0px"
	 viewBox="0 0 481.9 141.4" style="enable-background:new 0 0 481.9 141.4;" xml:space="preserve">
<style type="text/css">
	.st0{fill:#48A9C0;}
	.st1{fill:#1791B1;}
	.st2{fill:#466080;}
	.st3{fill:#ED1842;}
	.st4{fill:#8FDBF4;}
</style>
<g id="surface1">
	<path class="st0" d="M6.4,84.6c1.3-12.8,14.2-20.8,26.2-16.3c4.6,1.8,9.1,2.4,13.5-0.3c4.5-2.8,6.9-7,6.3-12.4
		c-0.7-5.8,0.3-11.1,4.4-15.4c5.2-5.5,13.3-7,20-3.6c6.8,3.4,10.6,10.8,9.3,18.3c-0.2,1.1-0.6,2.2-1,3.3c-3.2,9.7,2.8,17.8,13,17.4
		c7.2-0.3,13,4.9,13.7,12c0.6,6.9-4.3,13.1-11.3,14.1c-9.5,1.4-17-7.5-14.4-17c1.6-5.8,0-10.8-4.3-14.8c-6.9-6.5-19.3-8.2-27.8-4
		c-6.2,3.1-9.7,9.1-8.9,16.1c0.5,4.7,0.7,9.2-1.4,13.6c-4,8.1-13,12.6-22,10.8C13,104.4,6.3,96.4,6.1,87.5C6,86.5,6.3,85.6,6.4,84.6
		"/>
	<path class="st1" d="M24.9,14.5c12.5,1.3,21.4,12.5,20,24.9c-1.4,12.2-12.5,21.2-24.7,20C7.8,58.1-1.2,46.9,0.1,34.5
		C1.5,21.9,12.4,13.2,24.9,14.5"/>
	<path class="st2" d="M128.9,13.1c-1.6,0.7-3.1,1.6-4.3,2.9s-2.2,2.6-2.9,4.2c-0.7,1.6-1,3.3-1,5.2v4.6h17.8v8.8h-17.8v26.7h-8.8
		V25.4c0-3.1,0.6-6,1.7-8.7c1.2-2.7,2.8-5,4.8-7s4.4-3.6,7.1-4.7c2.7-1.2,5.6-1.7,8.6-1.7h4.4V12h-4.4
		C132.3,12,130.6,12.4,128.9,13.1"/>
	<path class="st2" d="M150.9,43.4c0,1.8,0.3,3.6,1,5.2c0.7,1.6,1.6,3.1,2.9,4.3c1.2,1.2,2.7,2.2,4.3,2.9c1.6,0.7,3.4,1,5.2,1
		c1.8,0,3.6-0.3,5.2-1c1.6-0.7,3.1-1.6,4.3-2.9c1.2-1.2,2.2-2.7,2.9-4.3c0.7-1.6,1-3.4,1-5.2c0-1.8-0.3-3.6-1-5.2
		c-0.7-1.6-1.6-3-2.9-4.3c-1.2-1.2-2.7-2.2-4.3-2.9c-1.6-0.7-3.4-1-5.2-1c-1.8,0-3.6,0.3-5.2,1s-3.1,1.6-4.3,2.9
		c-1.2,1.2-2.2,2.6-2.9,4.3C151.2,39.8,150.9,41.5,150.9,43.4 M142.2,43.4c0-3.1,0.6-6,1.7-8.7c1.2-2.7,2.7-5,4.8-7
		c2-2,4.4-3.6,7.1-4.7c2.7-1.2,5.6-1.7,8.6-1.7c3.1,0,6,0.6,8.7,1.7c2.7,1.2,5,2.7,7.1,4.7c2,2,3.6,4.4,4.8,7
		c1.2,2.7,1.7,5.6,1.7,8.7c0,3-0.6,5.9-1.7,8.6c-1.2,2.7-2.8,5.1-4.8,7.1s-4.4,3.6-7.1,4.8c-2.7,1.2-5.6,1.7-8.7,1.7
		c-3,0-5.9-0.6-8.6-1.7c-2.7-1.2-5.1-2.8-7.1-4.8c-2-2-3.6-4.4-4.8-7.1S142.2,46.4,142.2,43.4"/>
	<path class="st2" d="M216.2,21v8.8h-4.4c-1.8,0-3.6,0.3-5.2,1c-1.6,0.7-3,1.6-4.3,2.9c-1.2,1.2-2.2,2.6-2.9,4.3s-1,3.3-1,5.2v22.2
		h-8.9V43.2c0-3.1,0.6-6,1.7-8.7c1.2-2.7,2.8-5,4.8-7c2-2,4.4-3.6,7.1-4.7s5.6-1.7,8.6-1.7H216.2z"/>
	<path class="st2" d="M276.5,21c3.1,0,6,0.6,8.6,1.7c2.7,1.2,5,2.7,7.1,4.7c2,2,3.6,4.4,4.8,7c1.2,2.7,1.7,5.6,1.7,8.7v22.2h-8.8
		V43.2c0-1.8-0.3-3.6-1-5.2c-0.7-1.6-1.6-3-2.9-4.3c-1.2-1.2-2.7-2.2-4.3-2.9c-1.6-0.7-3.4-1-5.2-1c-1.8,0-3.6,0.3-5.2,1
		c-1.6,0.7-3,1.6-4.2,2.9c-1.2,1.2-2.2,2.6-2.9,4.3c-0.7,1.6-1,3.3-1,5.2v22.2h-8.8V43.2c0-1.8-0.3-3.6-1-5.2s-1.6-3-2.9-4.3
		c-1.2-1.2-2.7-2.2-4.3-2.9c-1.6-0.7-3.4-1-5.2-1c-1.8,0-3.6,0.3-5.2,1c-1.6,0.7-3,1.6-4.2,2.9c-1.2,1.2-2.2,2.6-2.9,4.3
		s-1,3.3-1,5.2v22.2h-8.8V43.2c0-3.1,0.6-6,1.7-8.7c1.2-2.7,2.7-5,4.8-7c2-2,4.4-3.6,7.1-4.7c2.7-1.2,5.6-1.7,8.6-1.7
		c3.7,0,7.1,0.8,10.1,2.4c3.1,1.6,5.6,3.8,7.7,6.6c2-2.8,4.6-5,7.7-6.6C269.5,21.8,272.8,21,276.5,21"/>
	<path class="st2" d="M337.4,56.6V43.2c0-1.8-0.3-3.6-1-5.2c-0.7-1.6-1.7-3-2.9-4.3c-1.2-1.2-2.6-2.2-4.2-2.9c-1.6-0.7-3.3-1-5.2-1
		c-1.8,0-3.6,0.3-5.2,1s-3.1,1.6-4.3,2.9c-1.2,1.2-2.2,2.6-2.9,4.3c-0.7,1.6-1,3.3-1,5.2c0,1.8,0.3,3.6,1,5.2s1.6,3.1,2.9,4.3
		c1.2,1.2,2.7,2.2,4.3,2.9s3.4,1,5.2,1H337.4z M324,21c3.1,0,6,0.6,8.7,1.7c2.7,1.2,5,2.7,7,4.7c2,2,3.6,4.4,4.7,7s1.7,5.6,1.7,8.7
		v22.2H324c-3,0-5.9-0.6-8.6-1.7s-5.1-2.8-7.1-4.8c-2-2-3.6-4.4-4.8-7.1c-1.2-2.7-1.7-5.6-1.7-8.6c0-3.1,0.6-6,1.7-8.7s2.8-5,4.8-7
		c2-2,4.4-3.6,7.1-4.7C318.1,21.6,321,21,324,21"/>
	<path class="st2" d="M375.3,56.6v8.8H371c-3,0-5.9-0.6-8.6-1.7s-5.1-2.8-7.1-4.8s-3.6-4.4-4.8-7.1c-1.2-2.7-1.7-5.6-1.7-8.6V3.2
		h8.8v26.7h17.8v8.8h-17.8v4.4c0,1.8,0.3,3.6,1,5.2c0.7,1.6,1.6,3.1,2.9,4.3s2.7,2.2,4.3,2.9c1.6,0.7,3.4,1,5.2,1H375.3z"/>
	<path class="st2" d="M387.3,65.4h-8.7V21h8.7V65.4z"/>
	<path class="st2" d="M398.9,43.4c0,1.8,0.3,3.6,1,5.2c0.7,1.6,1.6,3.1,2.9,4.3c1.2,1.2,2.7,2.2,4.3,2.9c1.6,0.7,3.4,1,5.2,1
		c1.8,0,3.6-0.3,5.2-1c1.6-0.7,3.1-1.6,4.3-2.9c1.2-1.2,2.2-2.7,2.9-4.3c0.7-1.6,1-3.4,1-5.2c0-1.8-0.3-3.6-1-5.2
		c-0.7-1.6-1.6-3-2.9-4.3c-1.2-1.2-2.7-2.2-4.3-2.9s-3.4-1-5.2-1c-1.8,0-3.6,0.3-5.2,1c-1.6,0.7-3.1,1.6-4.3,2.9
		c-1.2,1.2-2.2,2.6-2.9,4.3C399.2,39.8,398.9,41.5,398.9,43.4 M390.2,43.4c0-3.1,0.6-6,1.7-8.7c1.2-2.7,2.7-5,4.7-7
		c2-2,4.4-3.6,7.1-4.7c2.7-1.2,5.6-1.7,8.6-1.7c3.1,0,6,0.6,8.7,1.7c2.7,1.2,5,2.7,7.1,4.7c2,2,3.6,4.4,4.8,7
		c1.2,2.7,1.7,5.6,1.7,8.7c0,3-0.6,5.9-1.7,8.6s-2.8,5.1-4.8,7.1c-2,2-4.4,3.6-7.1,4.8c-2.7,1.2-5.6,1.7-8.7,1.7
		c-3,0-5.9-0.6-8.6-1.7c-2.7-1.2-5.1-2.8-7.1-4.8s-3.6-4.4-4.7-7.1C390.7,49.3,390.2,46.4,390.2,43.4"/>
	<path class="st2" d="M439.3,34.6c1.2-2.7,2.7-5,4.7-7c2-2,4.4-3.6,7.1-4.7c2.7-1.2,5.6-1.7,8.6-1.7c3.1,0,6,0.6,8.7,1.7
		c2.7,1.2,5,2.7,7.1,4.7s3.6,4.4,4.8,7c1.2,2.7,1.7,5.6,1.7,8.7v15.2l-8.8,4.3V43.3c0-1.8-0.3-3.6-1-5.2c-0.7-1.6-1.6-3-2.9-4.2
		c-1.2-1.2-2.7-2.2-4.3-2.9c-1.6-0.7-3.4-1-5.2-1s-3.6,0.3-5.2,1c-1.6,0.7-3,1.6-4.2,2.9c-1.2,1.2-2.2,2.6-2.9,4.2
		c-0.7,1.6-1,3.3-1,5.2v22.2l-8.8,2.7v-25C437.5,40.2,438.1,37.3,439.3,34.6"/>
	<path class="st3" d="M376.9,6.5c0-2.1,0.6-3.7,1.7-4.8s2.8-1.6,5-1.6c2.1,0,3.7,0.6,4.9,1.7c1.2,1.1,1.7,2.7,1.7,4.8
		c0,2-0.6,3.6-1.8,4.7c-1.2,1.2-2.8,1.7-4.9,1.7c-2.1,0-3.8-0.6-4.9-1.7C377.5,10.1,376.9,8.5,376.9,6.5"/>
	<path class="st4" d="M161,115.4v-11.9c0-1.6-0.3-3.2-1-4.6c-0.6-1.4-1.5-2.7-2.6-3.8c-1.1-1.1-2.4-1.9-3.9-2.5
		c-1.5-0.6-3.1-0.9-4.8-0.9c-1.7,0-3.3,0.3-4.8,0.9c-1.5,0.6-2.8,1.5-3.9,2.5c-1.1,1.1-2,2.3-2.6,3.8c-0.6,1.4-1,3-1,4.6
		c0,1.6,0.3,3.2,1,4.6c0.6,1.5,1.5,2.7,2.6,3.8c1.1,1.1,2.4,1.9,3.9,2.5c1.5,0.6,3.1,0.9,4.8,0.9H161z M148.7,83.9
		c2.8,0,5.5,0.5,7.9,1.5c2.4,1,4.6,2.4,6.4,4.2c1.8,1.8,3.3,3.8,4.3,6.2c1.1,2.4,1.6,4.9,1.6,7.7v19.7h-20.3c-2.8,0-5.4-0.5-7.9-1.5
		c-2.5-1-4.6-2.4-6.5-4.2s-3.3-3.9-4.4-6.3c-1.1-2.4-1.6-4.9-1.6-7.6c0-2.7,0.5-5.3,1.6-7.7c1.1-2.4,2.5-4.4,4.4-6.2
		c1.9-1.8,4-3.2,6.5-4.2C143.3,84.4,145.9,83.9,148.7,83.9"/>
	<path class="st4" d="M177.3,89.7c2-1.9,4.2-3.4,6.8-4.3c2.5-1,5.1-1.4,7.7-1.4c2.6,0,5.1,0.5,7.7,1.4s4.8,2.4,6.8,4.3l2.8,2.7
		l-5.6,5.5l-2.9-2.7c-1.2-1.2-2.6-2-4.1-2.6c-1.5-0.6-3-0.9-4.6-0.9s-3.1,0.3-4.6,0.9c-1.5,0.6-2.9,1.5-4.1,2.6
		c-1.2,1.1-2.1,2.4-2.7,3.9c-0.6,1.5-0.9,2.9-0.9,4.5c0,1.5,0.3,3,0.9,4.5c0.6,1.5,1.5,2.8,2.7,3.9c2.4,2.3,5.3,3.5,8.7,3.5
		c1.6,0,3.2-0.3,4.7-0.9c1.5-0.6,2.8-1.5,4-2.6l2.9-2.7l5.6,5.5l-2.8,2.7c-2,1.9-4.2,3.4-6.8,4.3c-2.5,1-5.1,1.4-7.7,1.4
		c-2.6,0-5.1-0.5-7.7-1.4c-2.5-1-4.8-2.4-6.8-4.3s-3.5-4.1-4.4-6.5c-1-2.4-1.4-4.9-1.4-7.4s0.5-5,1.4-7.4
		C173.9,93.8,175.4,91.6,177.3,89.7"/>
	<path class="st4" d="M244.6,115.4v-11.9c0-1.6-0.3-3.2-1-4.6c-0.6-1.4-1.5-2.7-2.6-3.8c-1.1-1.1-2.4-1.9-3.9-2.5
		c-1.5-0.6-3.1-0.9-4.8-0.9c-1.7,0-3.3,0.3-4.8,0.9c-1.5,0.6-2.8,1.5-3.9,2.5c-1.1,1.1-2,2.3-2.6,3.8c-0.6,1.4-0.9,3-0.9,4.6
		c0,1.6,0.3,3.2,0.9,4.6c0.6,1.5,1.5,2.7,2.6,3.8c1.1,1.1,2.4,1.9,3.9,2.5c1.5,0.6,3.1,0.9,4.8,0.9H244.6z M232.4,83.9
		c2.8,0,5.5,0.5,7.9,1.5c2.4,1,4.6,2.4,6.4,4.2c1.8,1.8,3.3,3.8,4.3,6.2c1.1,2.4,1.6,4.9,1.6,7.7v19.7h-20.3c-2.8,0-5.4-0.5-7.9-1.5
		c-2.5-1-4.6-2.4-6.5-4.2s-3.3-3.9-4.4-6.3s-1.6-4.9-1.6-7.6c0-2.7,0.5-5.3,1.6-7.7c1.1-2.4,2.5-4.4,4.4-6.2c1.9-1.8,4-3.2,6.5-4.2
		C227,84.4,229.6,83.9,232.4,83.9"/>
	<path class="st4" d="M277.9,115.4c1.7,0,3.3-0.3,4.8-0.9c1.5-0.6,2.8-1.5,3.9-2.5c1.1-1.1,2-2.3,2.6-3.8c0.6-1.5,1-3,1-4.6V91.7
		h-12.2c-1.7,0-3.3,0.3-4.8,0.9c-1.5,0.6-2.8,1.5-3.9,2.5c-1.1,1.1-2,2.3-2.6,3.8c-0.6,1.4-1,3-1,4.6c0,1.6,0.3,3.2,1,4.6
		c0.6,1.5,1.5,2.7,2.6,3.8c1.1,1.1,2.4,1.9,3.9,2.5C274.6,115.1,276.2,115.4,277.9,115.4 M298.1,68.2v35.4c0,2.7-0.5,5.2-1.6,7.6
		c-1.1,2.4-2.5,4.5-4.3,6.3c-1.8,1.8-4,3.2-6.5,4.2c-2.5,1-5.1,1.5-7.9,1.5c-2.8,0-5.4-0.5-7.9-1.5c-2.5-1-4.6-2.4-6.5-4.2
		s-3.3-3.9-4.4-6.3c-1.1-2.4-1.6-4.9-1.6-7.6c0-2.7,0.5-5.3,1.6-7.7c1.1-2.4,2.5-4.4,4.4-6.2c1.9-1.8,4-3.2,6.5-4.2
		c2.5-1,5.1-1.5,7.9-1.5h12.2V68.2H298.1z"/>
	<path class="st4" d="M312.6,95.3c-2.4,2.3-3.6,5.1-3.6,8.4c0,1.8,0.4,3.5,1.3,5.2c0.7-0.7,1.8-1.8,3.3-3.2c1.5-1.4,3-2.9,4.7-4.6
		c1.7-1.6,3.3-3.1,4.8-4.6c1.5-1.5,2.7-2.6,3.6-3.4c-2.3-1.1-4.7-1.5-7.3-1.1C316.8,92.3,314.6,93.4,312.6,95.3 M332.8,109.4
		l5.7,5.5l-2.8,2.7c-1.9,1.9-4.1,3.3-6.6,4.3c-2.5,1-5.1,1.5-7.8,1.5c-2.7,0-5.3-0.5-7.8-1.5c-2.5-1-4.7-2.4-6.6-4.3
		c-2-1.9-3.5-4.1-4.4-6.5c-1-2.4-1.4-4.9-1.4-7.4s0.5-5,1.4-7.4c1-2.4,2.4-4.6,4.4-6.5s4.2-3.4,6.7-4.3c2.5-1,5.1-1.4,7.7-1.4
		c2.6,0,5.1,0.5,7.7,1.4c2.5,1,4.8,2.4,6.7,4.3l2.8,2.7L316,114.4c2.3,1.1,4.7,1.5,7.3,1.1s4.8-1.5,6.8-3.4L332.8,109.4z"/>
	<path class="st4" d="M394.8,83.9c2.8,0,5.5,0.5,7.9,1.5c2.4,1,4.6,2.4,6.5,4.2c1.9,1.8,3.3,3.9,4.4,6.2c1.1,2.4,1.6,4.9,1.6,7.7
		v19.7h-8.1v-19.7c0-1.6-0.3-3.2-1-4.6c-0.6-1.4-1.5-2.7-2.6-3.8c-1.1-1.1-2.4-1.9-3.9-2.5c-1.5-0.6-3.1-0.9-4.8-0.9
		c-1.7,0-3.3,0.3-4.8,0.9c-1.5,0.6-2.8,1.5-3.9,2.5c-1.1,1.1-2,2.3-2.6,3.8c-0.6,1.4-1,3-1,4.6v19.7h-8.1v-19.7c0-1.6-0.3-3.2-1-4.6
		c-0.6-1.4-1.5-2.7-2.6-3.8c-1.1-1.1-2.4-1.9-3.9-2.5c-1.5-0.6-3.1-0.9-4.8-0.9c-1.7,0-3.3,0.3-4.8,0.9c-1.5,0.6-2.8,1.5-3.9,2.5
		c-1.1,1.1-2,2.3-2.6,3.8c-0.6,1.4-1,3-1,4.6v19.7h-8.1v-19.7c0-2.7,0.5-5.3,1.6-7.7s2.5-4.4,4.3-6.2c1.8-1.8,4-3.2,6.5-4.2
		c2.5-1,5.1-1.5,7.9-1.5c3.4,0,6.5,0.7,9.3,2.1c2.8,1.4,5.1,3.4,7,5.8c1.9-2.5,4.2-4.4,7.1-5.8C388.4,84.6,391.5,83.9,394.8,83.9"/>
	<path class="st4" d="M463.2,70.6v49.5c0,3-0.6,5.7-1.7,8.3c-1.1,2.6-2.7,4.8-4.7,6.8c-2,2-4.3,3.5-7,4.6c-2.6,1.1-5.5,1.7-8.6,1.7
		h-4.4V133h4.4c1.8,0,3.5-0.3,5.1-1s3-1.6,4.2-2.7c1.2-1.2,2.2-2.5,2.8-4.1s1-3.3,1-5V120c-1.8,1.4-3.9,2.5-6.1,3.2
		s-4.6,1.1-7.1,1.1c-3,0-5.8-0.6-8.5-1.7c-2.7-1.1-5-2.6-7.1-4.6s-3.6-4.2-4.8-6.8c-1.1-2.6-1.7-5.3-1.7-8.2V84.5l8.7-2.7V103
		c0,1.8,0.3,3.4,1,5c0.7,1.6,1.6,3,2.8,4.1c1.2,1.2,2.6,2.1,4.3,2.8c1.6,0.7,3.4,1,5.2,1s3.5-0.3,5.1-1s3-1.6,4.2-2.8
		c1.2-1.2,2.2-2.5,2.8-4.1c0.7-1.6,1-3.2,1-5V74L463.2,70.6z"/>
</g>
</svg>
