<svg xmlns="http://www.w3.org/2000/svg" width="164.057" height="36" viewBox="0 0 164.057 36">
  <g id="Group_12694" data-name="Group 12694" transform="translate(2408.013 -4441.809)">
    <path id="Path_2835" data-name="Path 2835" d="M-2378.6,4443.574a4.856,4.856,0,0,1,4.853,4.848V4471.2a4.856,4.856,0,0,1-4.853,4.848h-22.8a4.856,4.856,0,0,1-4.854-4.848v-22.773a4.856,4.856,0,0,1,4.854-4.848h22.8m0-1.765h-22.8a6.617,6.617,0,0,0-6.621,6.613V4471.2a6.617,6.617,0,0,0,6.621,6.613h22.8a6.617,6.617,0,0,0,6.62-6.613v-22.773a6.617,6.617,0,0,0-6.62-6.613Z" fill="#fff"/>
    <g id="Group_12216" data-name="Group 12216" transform="translate(-2362.05 4446.384)">
      <path id="Path_2836" data-name="Path 2836" d="M-1943.508,4505.71v-6.292h0c0-.005,0-.011,0-.017v-9.959h3.641v2.346a10,10,0,0,1,6.3-2.3v3.635a6.393,6.393,0,0,0-6.3,6.283v6.3Zm78.323-9.789a4.335,4.335,0,0,0-1.026-1.538,4.556,4.556,0,0,0-6.4.046,4.528,4.528,0,0,0-.966,1.492Zm-5.927,9.6a8.187,8.187,0,0,1-6.255-9.7,8.2,8.2,0,0,1,9.709-6.246,8.187,8.187,0,0,1,6.255,9.7h-12.179a4.371,4.371,0,0,0,1.023,1.539,4.556,4.556,0,0,0,6.395-.046l3.454,1.491a8.226,8.226,0,0,1-6.669,3.45A8.172,8.172,0,0,1-1871.112,4505.523Zm-51.018.233a6.393,6.393,0,0,0-6.3-6.293v6.293h-3.641v-20.51h3.641v10.534a6.392,6.392,0,0,0,6.255-6.292h3.641a10.009,10.009,0,0,1-4.283,8.118,10.009,10.009,0,0,1,4.329,8.15Zm39.629,0v-20.51h3.641v20.51Zm-75.85-8.157a4.5,4.5,0,0,0,4.528,4.521,4.5,4.5,0,0,0,4.481-3.861v-1.32a4.5,4.5,0,0,0-4.481-3.861A4.5,4.5,0,0,0-1958.352,4497.6Zm-3.641,0a8.143,8.143,0,0,1,8.169-8.158,8.162,8.162,0,0,1,4.481,1.327v-1.327h3.641v7.275a8.32,8.32,0,0,1,.047.883,8.325,8.325,0,0,1-.047.882v7.228h-3.641v-1.28a8.162,8.162,0,0,1-4.481,1.327A8.142,8.142,0,0,1-1961.993,4497.6Zm47,0a4.5,4.5,0,0,0,4.528,4.521,4.5,4.5,0,0,0,4.528-4.521,4.5,4.5,0,0,0-4.528-4.521A4.5,4.5,0,0,0-1914.989,4497.6Zm-3.641,0a8.142,8.142,0,0,1,8.168-8.157,8.161,8.161,0,0,1,4.528,1.358v-1.358h3.641v16.268h-3.641V4504.4a8.16,8.16,0,0,1-4.528,1.357A8.142,8.142,0,0,1-1918.629,4497.6Zm26.653,4.521a4.5,4.5,0,0,0,4.528-4.521,4.5,4.5,0,0,0-4.528-4.521,4.5,4.5,0,0,0-4.481,3.861v1.32A4.5,4.5,0,0,0-1891.977,4502.121Zm-4.481,2.309v1.28h-3.641v-7.229a8.307,8.307,0,0,1-.047-.881,8.3,8.3,0,0,1,.047-.881V4485.2a34.4,34.4,0,0,0,3.641-.885v6.454a8.161,8.161,0,0,1,4.481-1.327,8.142,8.142,0,0,1,8.168,8.157,8.142,8.142,0,0,1-8.168,8.157A8.161,8.161,0,0,1-1896.457,4504.43Zm-79.109-6.83a4.5,4.5,0,0,0,4.528,4.521,4.5,4.5,0,0,0,4.527-4.521,4.5,4.5,0,0,0-4.527-4.521A4.5,4.5,0,0,0-1975.567,4497.6Zm-3.75-8.158h3.641v1.358a8.156,8.156,0,0,1,4.528-1.358,8.142,8.142,0,0,1,8.168,8.158,8.142,8.142,0,0,1-8.168,8.157,8.159,8.159,0,0,1-4.528-1.357v5.879l-3.641.886Z" transform="translate(1979.317 -4484.315)" fill="#fff"/>
    </g>
    <path id="Path_2837" data-name="Path 2837" d="M-2337.169,4546.421a1.315,1.315,0,0,0,1.314-1.313,1.323,1.323,0,0,0-1.314-1.314,1.316,1.316,0,0,0-1.325,1.3A1.327,1.327,0,0,0-2337.169,4546.421Zm3.044-7.083a25.337,25.337,0,0,0,6.261-.708c2.284-.358,3.368-2.186,2.123-3.422a5.111,5.111,0,0,0-4.478-.994c-1.72.34-5.231,1.541-6.888,4.192-.215.349-.081.788.3.806h.009C-2335.979,4539.285-2335.012,4539.338-2334.125,4539.338Zm9.476,7.083a1.315,1.315,0,0,0,1.314-1.313,1.323,1.323,0,0,0-1.314-1.314,1.323,1.323,0,0,0-1.314,1.314A1.315,1.315,0,0,0-2324.649,4546.421Zm-16.937-3.553c0-5.993,8.661-11.214,14.035-10.91a7.849,7.849,0,0,1,7.685,7.685,7.648,7.648,0,0,1-2.006,5.177,2.313,2.313,0,0,1,.009.251,2.783,2.783,0,0,1-2.785,2.786,2.775,2.775,0,0,1-2.481-1.523,31.575,31.575,0,0,1-3.995.251,31.1,31.1,0,0,1-3.609-.206,2.794,2.794,0,0,1-2.445,1.451,2.794,2.794,0,0,1-2.526-1.612c-1.272-.34-1.514-1.084-1.514-1.084A4.416,4.416,0,0,1-2341.586,4542.868Z" transform="translate(-59.259 -80.453)" fill="#fff"/>
  </g>
</svg>
